<?xml version="1.0" standalone="no"?>
<!DOCTYPE svg PUBLIC "-//W3C//DTD SVG 20010904//EN"
 "http://www.w3.org/TR/2001/REC-SVG-20010904/DTD/svg10.dtd">
<svg version="1.0" xmlns="http://www.w3.org/2000/svg"
 width="500.000000pt" height="500.000000pt" viewBox="0 0 500.000000 500.000000"
 preserveAspectRatio="xMidYMid meet">

<g transform="translate(0.000000,500.000000) scale(0.100000,-0.100000)"
fill="#F8485E" stroke="none">
<path d="M790 4190 l0 -220 1435 0 1435 0 0 220 0 220 -1435 0 -1435 0 0 -220z"/>
<path d="M1970 2395 l0 -1445 265 0 265 0 0 635 0 635 135 0 c148 0 187 -9
239 -58 15 -15 223 -281 462 -592 274 -357 447 -574 470 -590 37 -25 38 -25
322 -28 233 -3 283 -1 276 10 -4 7 -163 222 -352 478 -190 256 -413 557 -496
670 -164 223 -262 331 -320 350 -20 6 -36 15 -36 19 0 5 17 20 38 34 64 45 98
85 607 713 l493 609 -242 3 c-267 4 -323 -3 -383 -47 -22 -16 -227 -266 -467
-571 -499 -631 -454 -590 -638 -590 l-108 0 0 605 0 605 -265 0 -265 0 0
-1445z"/>
</g>
</svg>
